<svg width="96" height="96" xmlns="http://www.w3.org/2000/svg" xmlns:xlink="http://www.w3.org/1999/xlink" xml:space="preserve" overflow="hidden"><g transform="translate(-426 -185)"><path d="M491.46 264.8C491.201 264.801 490.953 264.7 490.767 264.52 486.674 260.679 483.11 256.311 480.167 251.531 477.384 246.82 475.954 241.433 476.035 235.962 476.085 235.412 476.571 235.007 477.121 235.056 477.653 235.105 478.053 235.562 478.03 236.095 478.001 241.167 479.338 246.154 481.9 250.532 484.749 255.15 488.197 259.37 492.154 263.083 492.55 263.468 492.559 264.101 492.174 264.497 491.986 264.69 491.729 264.799 491.46 264.8Z" fill="#156082"/><path d="M486.409 269.655C486.148 269.657 485.896 269.555 485.709 269.373 481.23 265.127 477.33 260.309 474.109 255.045 470.631 249.13 468.879 242.359 469.051 235.5 469.345 231.091 473.157 227.756 477.565 228.049 481.946 228.341 485.273 232.11 485.02 236.493 485.073 240.197 486.084 243.824 487.955 247.021 490.219 250.927 496.421 257.464 496.481 257.521 496.873 257.911 496.874 258.544 496.484 258.935 496.095 259.327 495.462 259.329 495.07 258.939 495.012 258.882 488.636 252.18 486.225 248.02 484.171 244.487 483.069 240.482 483.025 236.396 483.237 233.089 480.728 230.236 477.421 230.025 474.113 229.813 471.261 232.322 471.049 235.629 470.898 242.093 472.561 248.471 475.849 254.038 478.978 259.145 482.764 263.818 487.111 267.938 487.507 268.323 487.516 268.956 487.131 269.352 486.942 269.547 486.682 269.656 486.411 269.655Z" fill="#156082"/><path d="M466.168 274.21C465.616 274.21 465.168 273.762 465.168 273.21 465.168 273.119 465.181 273.029 465.205 272.941 466.405 268.631 469.331 265.846 472.658 265.846 475.934 265.846 478.842 268.571 480.069 272.789 480.223 273.32 479.918 273.874 479.388 274.029 478.857 274.183 478.302 273.878 478.148 273.347 477.177 270.005 475.021 267.847 472.658 267.847 470.295 267.847 468.069 270.11 467.131 273.479 467.01 273.911 466.617 274.21 466.168 274.21Z" fill="#156082"/><path d="M458.755 270.158C458.203 270.158 457.755 269.71 457.755 269.158 457.755 268.87 457.879 268.597 458.095 268.407 460.878 265.961 467.016 259.27 463.918 249.975 462.332 245.22 461.698 240.2 462.055 235.2L462.067 235.033C462.614 226.772 469.755 220.518 478.016 221.065 478.024 221.066 478.031 221.066 478.039 221.067 486.172 221.651 492.366 228.598 492.017 236.745 491.989 237.297 491.519 237.723 490.967 237.695 490.415 237.667 489.989 237.197 490.017 236.645 490.36 229.473 484.824 223.382 477.653 223.039 474.291 222.878 470.998 224.027 468.466 226.245 465.867 228.51 464.281 231.72 464.06 235.16L464.048 235.333C463.71 240.07 464.31 244.828 465.813 249.333 469.29 259.765 462.496 267.191 459.413 269.9 459.232 270.063 458.998 270.155 458.755 270.158ZM499.066 252.6C498.792 252.6 498.53 252.488 498.342 252.289 496.028 249.938 493.994 247.327 492.28 244.509 492.018 244.023 492.2 243.416 492.687 243.154 493.152 242.904 493.733 243.059 494.011 243.509 495.646 246.191 497.586 248.676 499.79 250.914 500.171 251.314 500.155 251.947 499.754 252.328 499.569 252.504 499.322 252.603 499.066 252.603Z" fill="#156082"/><path d="M451.643 263.5C451.091 263.5 450.643 263.052 450.644 262.499 450.644 262.198 450.78 261.914 451.013 261.724 453.429 259.763 457.341 255.524 456.387 249.151 456.278 248.422 456.165 247.695 456.049 246.968 455.259 242.93 454.931 238.814 455.073 234.702L455.082 234.558C455.458 228.739 458.142 223.311 462.537 219.48 467.312 215.611 473.37 213.683 479.503 214.08 490.685 214.825 499.87 223.988 499.978 234.504 500.008 237.463 500.83 239.64 502.419 240.973 502.842 241.328 502.897 241.959 502.542 242.382 502.187 242.805 501.556 242.86 501.133 242.505 499.076 240.779 498.015 238.094 497.978 234.524 497.878 225.024 489.533 216.753 479.37 216.075 473.766 215.704 468.227 217.456 463.855 220.982 459.858 224.465 457.418 229.4 457.078 234.691L457.068 234.838C456.934 238.802 457.255 242.768 458.025 246.658 458.14 247.39 458.255 248.122 458.365 248.858 459.465 256.212 455.021 261.05 452.272 263.279 452.094 263.423 451.872 263.501 451.643 263.5Z" fill="#156082"/><path d="M500.339 221.083C500.011 221.083 499.704 220.923 499.517 220.654 494.717 213.883 487.12 209.635 478.838 209.093 471.992 208.623 465.225 210.788 459.922 215.144 459.482 215.478 458.855 215.393 458.521 214.953 458.204 214.537 458.262 213.947 458.653 213.6 464.347 208.919 471.617 206.593 478.971 207.1 487.859 207.685 496.01 212.245 501.16 219.513 501.475 219.967 501.362 220.59 500.908 220.905 500.741 221.021 500.543 221.083 500.339 221.083Z" fill="#156082"/><path d="M444.934 256.733C444.382 256.733 443.934 256.286 443.934 255.733 443.933 255.363 444.138 255.022 444.466 254.849 445.398 254.354 446.253 253.724 447 252.978 447.816 252.128 448.426 251.102 448.781 249.978 448.996 249.095 449.071 248.184 449.003 247.278 448.19 242.976 447.885 238.592 448.095 234.219L448.101 234.113C448.306 230.991 449.012 227.923 450.194 225.026 451.177 222.624 452.482 220.367 454.071 218.315 454.409 217.878 455.037 217.799 455.474 218.137 455.911 218.475 455.99 219.103 455.652 219.54 454.173 221.448 452.96 223.549 452.046 225.783 450.947 228.478 450.289 231.333 450.097 234.238L450.091 234.347C449.893 238.572 450.191 242.806 450.978 246.962 451.097 248.169 451.001 249.388 450.695 250.562 450.26 251.956 449.513 253.233 448.51 254.295 447.6 255.226 446.551 256.01 445.4 256.618 445.256 256.694 445.096 256.733 444.934 256.733Z" fill="#156082"/><path d="M444.289 224.634C444.169 224.634 444.05 224.612 443.937 224.57 443.42 224.376 443.159 223.799 443.353 223.282 443.468 222.977 443.587 222.674 443.71 222.373 449.598 208.046 463.983 199.084 479.439 200.114 483.851 200.401 488.174 201.485 492.2 203.314 492.702 203.544 492.923 204.137 492.693 204.639 492.465 205.14 491.875 205.361 491.373 205.135 487.567 203.404 483.478 202.377 479.306 202.104 464.71 201.131 451.124 209.594 445.562 223.124 445.445 223.409 445.333 223.694 445.225 223.981 445.08 224.373 444.707 224.633 444.289 224.634Z" fill="#156082"/><path d="M454.071 201.854C453.519 201.854 453.071 201.407 453.071 200.854 453.071 200.517 453.24 200.203 453.522 200.018 461.323 194.888 470.595 192.467 479.908 193.129 480.459 193.166 480.875 193.643 480.838 194.194 480.808 194.739 480.342 195.156 479.797 195.127 479.79 195.126 479.782 195.126 479.774 195.125 470.896 194.492 462.056 196.799 454.619 201.691 454.456 201.798 454.266 201.854 454.071 201.854Z" fill="#156082"/></g></svg>