<svg width="96" height="96" xmlns="http://www.w3.org/2000/svg" xmlns:xlink="http://www.w3.org/1999/xlink" xml:space="preserve" overflow="hidden"><g transform="translate(-592 -312)"><path d="M597.609 352.189C604.245 356.919 630.276 374.273 654.939 374.273 656.629 374.275 658.318 374.19 660 374.017L660 384.017 684 360.013 660 336.007 660 351.007C654.7 353.407 645.821 354.207 636.34 354.207 623.501 354.022 610.685 353.047 597.965 351.289 597.94 351.285 597.915 351.283 597.89 351.283 597.614 351.289 597.395 351.518 597.401 351.794 597.404 351.951 597.481 352.097 597.609 352.189ZM636.34 356.212C647.64 356.212 655.875 355.075 660.825 352.833L662 352.3 662 340.8 681.223 359.963 662 379.191 662 371.8 659.794 372.029C658.181 372.194 656.56 372.276 654.939 372.274 635.2 372.273 614.567 360.9 603.982 354.084 603.977 354.081 603.977 354.074 603.98 354.07 603.982 354.067 603.985 354.066 603.989 354.066 614.725 355.379 625.525 356.095 636.34 356.212Z" fill="#156082"/></g></svg>