<svg width="96" height="96" xmlns="http://www.w3.org/2000/svg" xmlns:xlink="http://www.w3.org/1999/xlink" xml:space="preserve" overflow="hidden"><g transform="translate(-578 -187)"><path d="M626 203C633.732 203 640 209.268 640 217 640 224.732 633.732 231 626 231 618.268 231 612 224.732 612 217 612.008 209.271 618.271 203.008 626 203M626 201C617.163 201 610 208.163 610 217 610 225.837 617.163 233 626 233 634.837 233 642 225.837 642 217 642 208.163 634.837 201 626 201Z" fill="#156082"/><path d="M658 269 656 269 656 253.5C655.952 251.376 654.952 249.386 653.275 248.081 648.889 244.716 643.868 242.273 638.513 240.9 634.459 239.652 630.242 239.012 626 239 621.759 239.074 617.548 239.713 613.476 240.9 608.177 242.452 603.178 244.886 598.688 248.1 597.028 249.406 596.042 251.388 596 253.5L596 269 594 269 594 253.5C594.05 250.769 595.326 248.205 597.476 246.519 602.167 243.151 607.395 240.601 612.937 238.977 617.184 237.74 621.577 237.075 626 237 630.432 237.011 634.838 237.678 639.075 238.979 644.685 240.424 649.943 242.991 654.533 246.525 656.678 248.211 657.952 250.772 658 253.5Z" fill="#156082"/></g></svg>