<svg width="96" height="96" xmlns="http://www.w3.org/2000/svg" xmlns:xlink="http://www.w3.org/1999/xlink" xml:space="preserve" overflow="hidden"><g transform="translate(-269 -179)"><path d="M302 194 284 194 284 212 302 212ZM300 210 286 210 286 196 300 196Z" fill="#156082"/><path d="M284 260 302 260 302 242 284 242ZM286 244 300 244 300 258 286 258Z" fill="#156082"/><path d="M334 194 334 212 352 212 352 194ZM350 210 336 210 336 196 350 196Z" fill="#156082"/><path d="M294 222 312 222 312 196 326 196 326 194 310 194 310 220 294 220 294 222Z" fill="#156082"/><path d="M322 204 324 204 324 212 322 212Z" fill="#156082"/><path d="M336 220 322 220 322 232 310 232 310 246 319 246 319 244 312 244 312 234 324 234 324 222 334 222 334 234 352 234 352 232 336 232 336 220Z" fill="#156082"/><path d="M286 218 284 218 284 234 302 234 302 232 286 232 286 218Z" fill="#156082"/><path d="M328 258 308 258 308 260 330 260 330 242 328 242 328 258Z" fill="#156082"/><path d="M344 220 352 220 352 222 344 222Z" fill="#156082"/><path d="M340 260 352 260 352 258 342 258 342 246 352 246 352 244 340 244 340 260Z" fill="#156082"/></g></svg>